<svg id="Layer_1" data-name="Layer 1" xmlns="http://www.w3.org/2000/svg" viewBox="0 0 538.83 524.5">
  <title>fatslice</title>
  <path d="M200,386.5" transform="translate(9.71 6)" fill="none" stroke="#fff" stroke-miterlimit="10" stroke-width="24"/>
  <polyline points="409.17 232.5 519.42 12 19.42 12 129.67 232.5" fill="none" stroke="#fff" stroke-linecap="round" stroke-miterlimit="10" stroke-width="24"/>
  <path d="M399.46,226.5" transform="translate(9.71 6)" fill="none" stroke="#fff" stroke-miterlimit="10" stroke-width="24"/>
  <path d="M319.46,386.5" transform="translate(9.71 6)" fill="none" stroke="#fff" stroke-miterlimit="10" stroke-width="24"/>
  <polyline points="209.67 392.5 269.92 512.5 329.17 392.5" fill="none" stroke="#fff" stroke-linecap="round" stroke-linejoin="round" stroke-width="24"/>
  <g style="isolation: isolate">
    <g style="isolation: isolate">
      <path d="M115.66,53.52h80.57V89.39h-36.9v15.17h36.28v34H159.33v51.66H115.66Zm25.83,120.33V124h38.95v-4.92H141.49V74.84h41V69.92H136.16V173.85Z" transform="translate(9.71 6)" fill="#ff000e"/>
      <path d="M248.09,53.52h32.8l51.87,136.73H289.71L285.2,178H243.79l-4.51,12.3H196.23ZM226.77,173.85l3.9-10.25h67.65l3.89,10.25H308L268.39,69.92H260.6L221,173.85Zm37.72-99,32,83.84h-64Zm9.23,73-9.23-24-9.22,24Z" transform="translate(9.71 6)" fill="#ff000e"/>
      <path d="M353.87,89.39H328.66V53.52h95.53V89.39H399V190.25h-45.1Zm25.22,84.46v-99H408.4V69.92h-64v4.92h29.32v99Z" transform="translate(9.71 6)" fill="#ff000e"/>
    </g>
    <g style="isolation: isolate">
      <path d="M38.07,328.82a68,68,0,0,0,9.43,2.25,73.28,73.28,0,0,0,9.33,1.64,90.17,90.17,0,0,0,10.56.62q9.42,0,9.43-7,0-2.67-2.87-5.44a89.18,89.18,0,0,0-7.28-6.15q-4.41-3.37-9.43-7.48a67.76,67.76,0,0,1-9.43-9.43,49.1,49.1,0,0,1-7.28-12,38.33,38.33,0,0,1-2.87-15.27,39.32,39.32,0,0,1,3.49-17,34.17,34.17,0,0,1,9.63-12.3,43.37,43.37,0,0,1,14.45-7.48A59.82,59.82,0,0,1,83,231.24a95.37,95.37,0,0,1,9.84.51l8.81.92,8.82,1.23v38.34c-1.1-.14-2.33-.28-3.69-.41-1.1-.14-2.33-.28-3.69-.41a42.47,42.47,0,0,0-4.31-.21c-.82,0-1.84,0-3.07.1a18.21,18.21,0,0,0-3.49.52,7.12,7.12,0,0,0-2.87,1.43,3.54,3.54,0,0,0-1.23,2.87c0,1.1.93,2.46,2.77,4.1s4.1,3.56,6.76,5.74,5.61,4.72,8.82,7.59a60.94,60.94,0,0,1,8.81,9.84A57.59,57.59,0,0,1,122,315.9a42,42,0,0,1,2.77,15.58,49.14,49.14,0,0,1-2.87,16.91A36,36,0,0,1,113,362.13a42.57,42.57,0,0,1-15.48,9.22q-9.43,3.39-22.34,3.39A134.67,134.67,0,0,1,60.73,374q-6.67-.72-11.79-1.74a101.91,101.91,0,0,1-10.87-2.46Zm17.22,24.6q2.87.61,6.15,1c1.91.28,3.93.51,6,.72s4.27.31,6.46.31a46.16,46.16,0,0,0,11.17-1.34,27.94,27.94,0,0,0,9.74-4.4,22.64,22.64,0,0,0,6.87-7.9,24.92,24.92,0,0,0,2.56-11.78,22.85,22.85,0,0,0-3-11.28,52.4,52.4,0,0,0-7.58-10.25,129.45,129.45,0,0,0-9.84-9.43q-5.23-4.5-9.84-9.12a56.59,56.59,0,0,1-7.59-9.23,17.36,17.36,0,0,1-3-9.53q0-7.38,4.72-11.38t15.17-4c1.09,0,2.22,0,3.38.1s2.29.17,3.38.31a27.76,27.76,0,0,0,3.28.2v-5.33a26,26,0,0,1-3.07-.2c-1-.14-2-.24-3.18-.31s-2.36-.1-3.59-.1q-11.07,0-18.24,5t-7.18,15.68a20.75,20.75,0,0,0,3,10.76,54.39,54.39,0,0,0,7.59,9.84q4.61,4.83,9.84,9.33t9.84,9.12A50.34,50.34,0,0,1,96,319.8a19.58,19.58,0,0,1,3,10.25q0,9.84-6.67,15T74,350.14a71.8,71.8,0,0,1-12.71-1c-2.05-.27-4-.61-6-1Z" transform="translate(9.71 6)" fill="#ff000e"/>
      <path d="M134,234.52h45.51V335.38h37.72v35.87H134Zm71.75,120.33v-4.92H159.84v-99h-5.33V354.85Z" transform="translate(9.71 6)" fill="#ff000e"/>
      <path d="M224.42,234.52h46.33V371.25H224.42Zm25.83,120.33V250.92h-5.33V354.85Z" transform="translate(9.71 6)" fill="#ff000e"/>
      <path d="M282,303a73.63,73.63,0,0,1,5.74-29.63,69,69,0,0,1,15.58-22.65,68,68,0,0,1,23-14.45,77.25,77.25,0,0,1,27.88-5A87.29,87.29,0,0,1,375,233.49a98.52,98.52,0,0,1,15.68,5.13,73.64,73.64,0,0,1,13.12,7.17l-21.53,37.93a73.56,73.56,0,0,0-7.17-4.72,70.75,70.75,0,0,0-8.3-3.18,36.26,36.26,0,0,0-11-1.53,29.78,29.78,0,0,0-11.69,2.25,30.12,30.12,0,0,0-9.32,6.15,28.32,28.32,0,0,0-6.26,9.12A28,28,0,0,0,326.3,303a26.75,26.75,0,0,0,2.36,11.17,28.74,28.74,0,0,0,6.45,9.12,30.57,30.57,0,0,0,9.64,6.15,31.62,31.62,0,0,0,12.09,2.26,38.43,38.43,0,0,0,11.69-1.64,43.33,43.33,0,0,0,8.61-3.69,31.86,31.86,0,0,0,7.17-5.33L405.84,359a61.23,61.23,0,0,1-13.12,8,112.22,112.22,0,0,1-15.79,5.33,82.2,82.2,0,0,1-21.11,2.46,81.34,81.34,0,0,1-29.52-5.23,69.63,69.63,0,0,1-23.37-14.66,66.53,66.53,0,0,1-15.38-22.65A74.93,74.93,0,0,1,282,303Zm25.83,0a50.1,50.1,0,0,1,3.38-18.45,45,45,0,0,1,9.53-15,44.44,44.44,0,0,1,15-10,50.46,50.46,0,0,1,19.68-3.69,58,58,0,0,1,9.53.71A43.11,43.11,0,0,1,372,258.3a26.45,26.45,0,0,1,5.95,2.46l2.87-4.92q-3.29-1.44-7-2.67a77.56,77.56,0,0,0-8-1.84,58.62,58.62,0,0,0-10.45-.82,54.92,54.92,0,0,0-20,3.69,51.28,51.28,0,0,0-16.81,10.55A51.83,51.83,0,0,0,302.52,303a53.89,53.89,0,0,0,4.2,21.73,49,49,0,0,0,11.58,16.5,51.54,51.54,0,0,0,17.22,10.56,59.06,59.06,0,0,0,20.91,3.69,54,54,0,0,0,11.07-1,66,66,0,0,0,8.41-2.25,41.74,41.74,0,0,0,7-3.28L380,344a26,26,0,0,1-6.15,3.07,45.55,45.55,0,0,1-7.38,2.15,48,48,0,0,1-10.05.93,53.16,53.16,0,0,1-20.29-3.69,44.84,44.84,0,0,1-15.27-10.05,44,44,0,0,1-9.64-15A50.1,50.1,0,0,1,307.85,303Z" transform="translate(9.71 6)" fill="#ff000e"/>
      <path d="M411,234.52h80.57v35.87h-36.9v15.17h36.28v34H454.63v15.79H493v35.87H411Zm66.83,120.33v-4.92h-41V305h38.95v-4.92H436.79V255.84h41v-4.92H431.46V354.85Z" transform="translate(9.71 6)" fill="#ff000e"/>
    </g>
  </g>
</svg>
